# xmcd
#
# Track frame offsets: 
#        150
#        17921
#        36799
#        54762
#        73794
#        93510
#        111411
#        139860
#        158356
#        175292
#        202321
#        218956
#
# Disc length: 3121 seconds
#
# Revision: 1
# Processed by: cddbd v1.5.2PL0 Copyright (c) Steve Scherf et al.
# Submitted via: ExactAudioCopy v0.99pb5
#
DISCID=ad0c2f0c
DTITLE=Blues Wire - Steady Gig
DYEAR=1900
DGENRE=Blues
TTITLE0=I Wish you Would
TTITLE1=Six Strings Down
TTITLE2=Homely Girl
TTITLE3=Junko Partner
TTITLE4=Sensitive Kind
TTITLE5=Steady Gig
TTITLE6=Texas Flood
TTITLE7=Shake It
TTITLE8=Love Me
TTITLE9=Catch Me When I Fall
TTITLE10=Lil' More Dirt To Clean
TTITLE11=Buy A Dog
EXTD=
EXTT0=
EXTT1=
EXTT2=
EXTT3=
EXTT4=
EXTT5=
EXTT6=
EXTT7=
EXTT8=
EXTT9=
EXTT10=
EXTT11=
PLAYORDER=
